<?xml version="1.0" encoding="UTF-8" standalone="no"?>
<svg
   width="115"
   height="20"
   viewBox="0 0 115 20"
   fill="none"
   version="1.1"
   id="svg5177"
   sodipodi:docname="small_logo.svg"
   inkscape:version="1.2.2 (732a01da63, 2022-12-09)"
   xmlns:inkscape="http://www.inkscape.org/namespaces/inkscape"
   xmlns:sodipodi="http://sodipodi.sourceforge.net/DTD/sodipodi-0.dtd"
   xmlns="http://www.w3.org/2000/svg"
   xmlns:svg="http://www.w3.org/2000/svg">
  <defs
     id="defs5181" />
  <sodipodi:namedview
     id="namedview5179"
     pagecolor="#ffffff"
     bordercolor="#000000"
     borderopacity="0.25"
     inkscape:showpageshadow="2"
     inkscape:pageopacity="0.0"
     inkscape:pagecheckerboard="0"
     inkscape:deskcolor="#d1d1d1"
     showgrid="false"
     inkscape:zoom="10.782609"
     inkscape:cx="56.943548"
     inkscape:cy="10.016129"
     inkscape:window-width="1920"
     inkscape:window-height="974"
     inkscape:window-x="-11"
     inkscape:window-y="-11"
     inkscape:window-maximized="1"
     inkscape:current-layer="svg5177" />
  <g
     id="g5554"
     transform="matrix(0.34458225,0,0,0.3288213,68.744123,13.057408)">
    <path
       d="M 28.6172,16 V 4.57812 h 0.7969 V 15.25 h 5.4453 V 16 Z"
       fill="#028577"
       id="path5137" />
    <path
       d="M 38.8359,16 V 4.57812 h 0.7969 V 16 Z"
       fill="#028577"
       id="path5139" />
    <path
       d="M 47.8438,16 H 47.0391 V 5.32812 h -3.711 v -0.75 h 8.2266 v 0.75 h -3.7109 z"
       fill="#028577"
       id="path5141" />
    <path
       d="M 61.5,16 H 55.2578 V 4.57812 H 61.5 V 5.3125 h -5.4453 v 4.32031 h 5.1406 v 0.73439 h -5.1406 v 4.8984 H 61.5 Z"
       fill="#028577"
       id="path5143" />
    <path
       d="M 68.2891,16 H 65.9062 V 4.57812 h 6.5469 V 6.5625 h -4.164 v 2.94531 h 3.875 v 1.97659 h -3.875 z"
       fill="#028577"
       id="path5145" />
    <path
       d="M 83.6797,16 82.8516,13.2812 H 78.6875 L 77.8594,16 H 75.25 L 79.2812,4.53125 h 2.961 L 86.2891,16 Z M 82.2734,11.25 C 81.5078,8.78646 81.0755,7.39323 80.9766,7.07031 80.8828,6.7474 80.8151,6.49219 80.7734,6.30469 80.6016,6.97135 80.1094,8.61979 79.2969,11.25 Z"
       fill="#028577"
       id="path5147" />
    <path
       d="m 92.1562,9.64844 h 0.7813 c 0.7656,0 1.3307,-0.12761 1.6953,-0.38282 0.3646,-0.2552 0.5469,-0.65624 0.5469,-1.20312 0,-0.54167 -0.1875,-0.92708 -0.5625,-1.15625 C 94.2474,6.67708 93.6719,6.5625 92.8906,6.5625 h -0.7344 z m 0,1.96876 V 16 H 89.7344 V 4.57812 h 3.3281 c 1.5521,0 2.7005,0.28386 3.4453,0.85157 0.7448,0.5625 1.1172,1.41927 1.1172,2.57031 0,0.67188 -0.1849,1.27083 -0.5547,1.79688 C 96.7005,10.3177 96.1771,10.7266 95.5,11.0234 97.2188,13.5911 98.3385,15.25 98.8594,16 h -2.6875 l -2.7266,-4.3828 z"
       fill="#028577"
       id="path5149" />
    <path
       d="m 107.133,16 -2.75,-8.96094 h -0.071 c 0.099,1.82292 0.149,3.03904 0.149,3.64844 V 16 h -2.164 V 4.57812 h 3.297 l 2.703,8.73438 h 0.047 l 2.867,-8.73438 h 3.297 V 16 h -2.258 v -5.4062 c 0,-0.2553 0.003,-0.5495 0.008,-0.88286 0.01,-0.33334 0.047,-1.21875 0.109,-2.65625 h -0.07 L 109.352,16 Z"
       fill="#028577"
       id="path5151" />
  </g>
  <text
     xml:space="preserve"
     style="font-size:12.1671px;fill:#458f83;fill-opacity:1;stroke-width:0.321902"
     x="21.18494"
     y="11.872668"
     id="text471"
     transform="scale(1.0417523,0.95992109)"><tspan
       sodipodi:role="line"
       id="tspan469"
       style="fill:#458f83;fill-opacity:1;stroke-width:0.321902"
       x="21.18494"
       y="11.872668">true wellth</tspan></text>
  <text
     xml:space="preserve"
     style="font-size:2.9671px;fill:#458f83;fill-opacity:1;stroke-width:0.0784999"
     x="62.565788"
     y="17.946617"
     id="text471-5"
     transform="scale(0.96026101,1.0413835)"><tspan
       sodipodi:role="line"
       id="tspan469-5"
       style="fill:#458f83;fill-opacity:1;stroke-width:0.0784999"
       x="62.565788"
       y="17.946617">Powered By </tspan></text>
  <text
     xml:space="preserve"
     style="fill:#49498a;fill-opacity:1;stroke-width:0.31748"
     x="12.241935"
     y="13.633065"
     id="text7309"><tspan
       sodipodi:role="line"
       id="tspan7307"></tspan></text>
</svg>
