<?xml version="1.0" encoding="UTF-8" standalone="no"?>
<svg
   width="86"
   height="12"
   viewBox="0 0 86 12"
   fill="none"
   version="1.1"
   id="svg148"
   sodipodi:docname="smaller_logo.svg"
   xml:space="preserve"
   inkscape:version="1.2.2 (732a01da63, 2022-12-09)"
   xmlns:inkscape="http://www.inkscape.org/namespaces/inkscape"
   xmlns:sodipodi="http://sodipodi.sourceforge.net/DTD/sodipodi-0.dtd"
   xmlns="http://www.w3.org/2000/svg"
   xmlns:svg="http://www.w3.org/2000/svg"><defs
     id="defs152" /><sodipodi:namedview
     id="namedview150"
     pagecolor="#ffffff"
     bordercolor="#000000"
     borderopacity="0.25"
     inkscape:showpageshadow="2"
     inkscape:pageopacity="0.0"
     inkscape:pagecheckerboard="0"
     inkscape:deskcolor="#d1d1d1"
     showgrid="false"
     inkscape:zoom="14.418605"
     inkscape:cx="43"
     inkscape:cy="6.033871"
     inkscape:window-width="1920"
     inkscape:window-height="974"
     inkscape:window-x="-11"
     inkscape:window-y="-11"
     inkscape:window-maximized="1"
     inkscape:current-layer="g320" /><g
     id="g320"
     transform="matrix(0.31202806,0,0,0.28642308,26.354839,8.4612904)"><path
       d="M 0,11.4688 V 0.046875 H 0.796875 V 10.7188 H 6.24219 v 0.75 z"
       fill="#028577"
       id="path132" /><path
       d="M 10.2188,11.4688 V 0.046875 h 0.7968 V 11.4688 Z"
       fill="#028577"
       id="path134" /><path
       d="M 19.2266,11.4688 H 18.4219 V 0.796875 h -3.711 v -0.75 h 8.2266 v 0.75 h -3.7109 z"
       fill="#028577"
       id="path136" /><path
       d="M 32.8828,11.4688 H 26.6406 V 0.046875 h 6.2422 V 0.78125 h -5.4453 v 4.32031 h 5.1406 v 0.73438 h -5.1406 v 4.89846 h 5.4453 z"
       fill="#028577"
       id="path138" /><path
       d="M 39.6719,11.4688 H 37.2891 V 0.046875 h 6.5468 V 2.03125 h -4.164 v 2.94531 h 3.875 v 1.97656 h -3.875 z"
       fill="#028577"
       id="path140" /><path
       d="M 55.0625,11.4688 54.2344,8.75 h -4.1641 l -0.8281,2.7188 H 46.6328 L 50.6641,0 h 2.9609 l 4.0469,11.4688 z M 53.6562,6.71875 C 52.8906,4.25521 52.4583,2.86198 52.3594,2.53906 52.2656,2.21615 52.1979,1.96094 52.1562,1.77344 51.9844,2.4401 51.4922,4.08854 50.6797,6.71875 Z"
       fill="#028577"
       id="path142" /><path
       d="m 63.5391,5.11719 h 0.7812 c 0.7656,0 1.3307,-0.12761 1.6953,-0.38281 C 66.3802,4.47917 66.5625,4.07812 66.5625,3.53125 66.5625,2.98958 66.375,2.60417 66,2.375 65.6302,2.14583 65.0547,2.03125 64.2734,2.03125 h -0.7343 z m 0,1.96875 V 11.4688 H 61.1172 V 0.046875 h 3.3281 c 1.5521,0 2.7005,0.283854 3.4453,0.851563 0.7448,0.562502 1.1172,1.419272 1.1172,2.570312 0,0.67187 -0.1849,1.27083 -0.5547,1.79687 -0.3698,0.52084 -0.8932,0.92969 -1.5703,1.22657 1.7188,2.56771 2.8386,4.22661 3.3594,4.97661 H 67.5547 L 64.8281,7.08594 Z"
       fill="#028577"
       id="path144" /><path
       d="m 78.5156,11.4688 -2.75,-8.96099 h -0.0703 c 0.099,1.82292 0.1485,3.03907 0.1485,3.64844 V 11.4688 H 73.6797 V 0.046875 h 3.2969 l 2.7031,8.734375 h 0.0469 l 2.8672,-8.734375 h 3.2968 V 11.4688 H 83.6328 V 6.0625 c 0,-0.25521 0.0026,-0.54948 0.0078,-0.88281 C 83.651,4.84635 83.6875,3.96094 83.75,2.52344 h -0.0703 l -2.9453,8.94536 z"
       fill="#028577"
       id="path146" /><text
       xml:space="preserve"
       style="font-size:31.2261px;fill:#458f83;fill-opacity:1;stroke-width:0.826139"
       x="-35.289387"
       y="-4.872982"
       id="text471"
       transform="scale(0.98865929,1.0114708)"><tspan
         sodipodi:role="line"
         id="tspan469"
         style="fill:#458f83;fill-opacity:1;stroke-width:0.826139"
         x="-35.289387"
         y="-4.872982">true wellth</tspan></text></g></svg>
