<?xml version="1.0" encoding="UTF-8" standalone="no"?>
<svg
   width="146"
   height="111"
   viewBox="0 0 146 111"
   fill="none"
   version="1.1"
   id="svg19778"
   sodipodi:docname="logo.svg"
   inkscape:version="1.2.2 (732a01da63, 2022-12-09)"
   xmlns:inkscape="http://www.inkscape.org/namespaces/inkscape"
   xmlns:sodipodi="http://sodipodi.sourceforge.net/DTD/sodipodi-0.dtd"
   xmlns="http://www.w3.org/2000/svg"
   xmlns:svg="http://www.w3.org/2000/svg">
  <defs
     id="defs19782" />
  <sodipodi:namedview
     id="namedview19780"
     pagecolor="#ffffff"
     bordercolor="#000000"
     borderopacity="0.25"
     inkscape:showpageshadow="2"
     inkscape:pageopacity="0.0"
     inkscape:pagecheckerboard="0"
     inkscape:deskcolor="#d1d1d1"
     showgrid="false"
     inkscape:zoom="6.990991"
     inkscape:cx="72.951031"
     inkscape:cy="54.069588"
     inkscape:window-width="1920"
     inkscape:window-height="974"
     inkscape:window-x="-11"
     inkscape:window-y="-11"
     inkscape:window-maximized="1"
     inkscape:current-layer="svg19778" />
  <g
     id="g19996"
     transform="matrix(1.5949442,0,0,1.7781334,-67.546915,-53.240449)">
    <g
       id="g13965"
       transform="matrix(0.47699257,0,0,0.4656053,87.258857,48.146631)">
      <path
         d="M 0,58 V 46.5781 H 0.796875 V 57.25 H 6.24219 V 58 Z"
         fill="#028577"
         id="path13818" />
      <path
         d="M 11.2188,58 V 46.5781 h 0.7968 V 58 Z"
         fill="#028577"
         id="path13820" />
      <path
         d="M 21.2266,58 H 20.4219 V 47.3281 h -3.711 v -0.75 h 8.2266 v 0.75 h -3.7109 z"
         fill="#028577"
         id="path13822" />
      <path
         d="M 35.8828,58 H 29.6406 V 46.5781 h 6.2422 v 0.7344 h -5.4453 v 4.3203 h 5.1406 v 0.7344 h -5.1406 v 4.8984 h 5.4453 z"
         fill="#028577"
         id="path13824" />
      <path
         d="M 43.6719,58 H 41.2891 V 46.5781 h 6.5468 v 1.9844 h -4.164 v 2.9453 h 3.875 v 1.9766 h -3.875 z"
         fill="#028577"
         id="path13826" />
      <path
         d="M 60.0625,58 59.2344,55.2812 H 55.0703 L 54.2422,58 H 51.6328 L 55.6641,46.5312 H 58.625 L 62.6719,58 Z m -1.4063,-4.75 c -0.7656,-2.4635 -1.1979,-3.8568 -1.2968,-4.1797 -0.0938,-0.3229 -0.1615,-0.5781 -0.2032,-0.7656 -0.1718,0.6667 -0.664,2.3151 -1.4765,4.9453 z"
         fill="#028577"
         id="path13828" />
      <path
         d="m 69.5391,51.6484 h 0.7812 c 0.7656,0 1.3307,-0.1276 1.6953,-0.3828 0.3646,-0.2552 0.5469,-0.6562 0.5469,-1.2031 0,-0.5417 -0.1875,-0.9271 -0.5625,-1.1563 -0.3698,-0.2291 -0.9453,-0.3437 -1.7266,-0.3437 h -0.7343 z m 0,1.9688 V 58 H 67.1172 V 46.5781 h 3.3281 c 1.5521,0 2.7005,0.2839 3.4453,0.8516 0.7448,0.5625 1.1172,1.4193 1.1172,2.5703 0,0.6719 -0.1849,1.2708 -0.5547,1.7969 -0.3698,0.5208 -0.8932,0.9297 -1.5703,1.2265 1.7188,2.5677 2.8386,4.2266 3.3594,4.9766 h -2.6875 l -2.7266,-4.3828 z"
         fill="#028577"
         id="path13830" />
      <path
         d="m 85.5156,58 -2.75,-8.9609 h -0.0703 c 0.099,1.8229 0.1485,3.039 0.1485,3.6484 V 58 H 80.6797 V 46.5781 h 3.2969 l 2.7031,8.7344 h 0.0469 l 2.8672,-8.7344 h 3.2968 V 58 h -2.2578 v -5.4062 c 0,-0.2553 0.0026,-0.5495 0.0078,-0.8829 0.0104,-0.3333 0.0469,-1.2187 0.1094,-2.6562 H 90.6797 L 87.7344,58 Z"
         fill="#028577"
         id="path13832" />
    </g>
    <text
       xml:space="preserve"
       style="font-size:15.113px;fill:#458f83;fill-opacity:1;stroke-width:0.399842"
       x="52.059319"
       y="51.481495"
       id="text471"
       transform="scale(0.92120722,1.0855321)"><tspan
         sodipodi:role="line"
         id="tspan469"
         style="fill:#458f83;fill-opacity:1;stroke-width:0.399842"
         x="52.059319"
         y="51.481495">true wellth</tspan></text>
    <text
       xml:space="preserve"
       style="font-size:2.9671px;fill:#458f83;fill-opacity:1;stroke-width:0.0784999"
       x="69.089981"
       y="71.989174"
       id="text471-5"
       transform="scale(0.96026103,1.0413835)"><tspan
         sodipodi:role="line"
         id="tspan469-5"
         style="fill:#458f83;fill-opacity:1;stroke-width:0.0784999"
         x="69.089981"
         y="71.989174">Powered By </tspan></text>
  </g>
</svg>
