<?xml version="1.0" encoding="UTF-8" standalone="no"?>
<svg
   id="Layer_1"
   viewBox="0 0 676.3 416.14"
   version="1.1"
   sodipodi:docname="signup_english.svg"
   inkscape:version="1.2.2 (732a01da63, 2022-12-09)"
   xmlns:inkscape="http://www.inkscape.org/namespaces/inkscape"
   xmlns:sodipodi="http://sodipodi.sourceforge.net/DTD/sodipodi-0.dtd"
   xmlns="http://www.w3.org/2000/svg"
   xmlns:svg="http://www.w3.org/2000/svg">
  <sodipodi:namedview
     id="namedview22044"
     pagecolor="#ffffff"
     bordercolor="#000000"
     borderopacity="0.25"
     inkscape:showpageshadow="2"
     inkscape:pageopacity="0.0"
     inkscape:pagecheckerboard="0"
     inkscape:deskcolor="#d1d1d1"
     showgrid="false"
     inkscape:zoom="1.864757"
     inkscape:cx="338.38189"
     inkscape:cy="208.07001"
     inkscape:window-width="1920"
     inkscape:window-height="974"
     inkscape:window-x="-11"
     inkscape:window-y="-11"
     inkscape:window-maximized="1"
     inkscape:current-layer="Layer_1" />
  <defs
     id="defs21945">
    <style
       id="style21943">.cls-1{fill:#e6f5eb;}.cls-2,.cls-7{fill:#fff;}.cls-2,.cls-6,.cls-9{fill-rule:evenodd;}.cls-2{opacity:0.6;isolation:isolate;}.cls-3{fill:#dcf2e2;}.cls-4{fill:#d2ead7;}.cls-5{fill:none;stroke:#fff;}.cls-6{fill:#2c2727;}.cls-8{fill:#fed450;}.cls-9{fill:#84bfb6;}.cls-10{fill:#4d4d4d;}.cls-11{fill:#282b36;}.cls-12{fill:#fffbfb;stroke:#83cf9e;}</style>
  </defs>
  <path
     class="cls-1"
     d="M591.17,145.39c23.94,44.22,67.35,121.45,24.56,150.78-55.36,37.94-159.25,44.47-270.39,44.47-137,1.26-257.36-12.83-278.72-20.5C21,303.77,43,205.87,107.42,131.85,166.65,58,204.63,81.55,326.85,21.32,425.07-27.09,549.65,68.69,591.17,145.39Z"
     id="path21947" />
  <path
     class="cls-1"
     d="M262,27.63c-11,5.18-47.49,19.75-40.35,19.75,23.18,0,79.88-19.18,86.71-33.12C317-3.28,273,22.45,262,27.63Z"
     id="path21949" />
  <path
     class="cls-2"
     d="M497.62,84.56c-3.46-3.25-7.93-4.58-13.35-3.88-4.95.65-9.06,4.32-12.49,10s-6.3,13.62-8.7,23.11c-4.8,19-7.8,44.57-9.76,72.14-1.66,23.32-2.58,48.12-3.19,71.64-2.64-8.39-6.14-15.16-10.17-19.76-4.59-5.24-10-7.78-15.62-6.46a6.59,6.59,0,0,0-4.83,4.93,24.67,24.67,0,0,0-.37,9.53c.86,7.57,3.69,17.62,7.28,28.6,2.38,7.31,5.11,15,7.83,22.76h0c5.34,15.12,10.66,30.23,13.48,42.21l-.87,1.58,1.9-.31.66-.11h.39l0-.07c4.38-.63,9.83-.95,15.55-1.21l3.29-.15h0c5.15-.23,10.38-.46,15.07-.89,5.67-.52,10.72-1.35,14-2.9a7,7,0,0,0,3.56-3.2,5.38,5.38,0,0,0-.45-4.79c-1.29-2.48-4.07-5.12-7.73-7.15a28.8,28.8,0,0,0-13.45-3.61,28,28,0,0,0-5.57.47c9-8.64,18.42-17.79,26.56-26.3s15-16.38,19.13-22.51a24.3,24.3,0,0,0,3.85-7.94,5.37,5.37,0,0,0-.16-3.07,3.8,3.8,0,0,0-2.14-2,21.64,21.64,0,0,0-16.31-.3c1.54-2.72,3-5.44,4.49-8.12,8.39-15.51,15.08-30.16,18.6-41.93a55.23,55.23,0,0,0,2.71-15.35c0-4.25-1-7.72-3.49-9.89a12.3,12.3,0,0,0-9.57-3.4c-3.39.31-6.86,2-10.33,4.88-3.94,3.23-8,8-12,14.08,3.43-14.58,6.12-28.12,8-40.4,3.64-23.62,4.33-42.69,1.45-55.57C503.4,92.77,501.05,87.78,497.62,84.56Zm-26.3,235.13a26.11,26.11,0,0,1,8.28-1.22,27.07,27.07,0,0,1,12.57,3.37c3.46,1.93,5.91,4.33,7,6.38a3.55,3.55,0,0,1,.4,3.17,5.13,5.13,0,0,1-2.66,2.27c-2.9,1.39-7.64,2.2-13.32,2.72-4.65.43-9.82.66-15,.89l-3.31.15c-4.83.22-9.54.48-13.6.95l4.85-4.63a50.2,50.2,0,0,1,5.47-2.93,48,48,0,0,1,16.47-3.95l-.16-1.87a50.2,50.2,0,0,0-16.74,4l.78-.74h0l0,0C465.26,325.46,468.26,322.61,471.32,319.69Zm-4.93,2.11a38.85,38.85,0,0,0-12.5,11.38l1.5-.94,5.73-5.44Zm-10.46,6A34.47,34.47,0,0,1,470.34,318c9.74-9.3,20.07-19.31,28.93-28.57,8.11-8.48,14.94-16.27,18.92-22.25,2-3,3.22-5.46,3.58-7.27a3.58,3.58,0,0,0-.06-2,1.91,1.91,0,0,0-1.13-1,20,20,0,0,0-16.94.57l-.11.06-.08,0A579.38,579.38,0,0,1,455.93,327.77Zm38.09-127c5-8.24,9.89-14.43,14.56-18.26,3.32-2.72,6.44-4.2,9.32-4.47a10.51,10.51,0,0,1,8.16,2.94c1.86,1.66,2.84,4.49,2.86,8.5a53.25,53.25,0,0,1-2.64,14.8c-3.46,11.59-10.09,26.11-18.44,41.58q-2.76,5.08-5.73,10.28c-5.77,2.92-11.43,8.13-17.1,15.25-8.71,11-17.53,26.6-26.76,45.9q3.06-8.58,6-17c13.07-33.17,26.52-61.85,43.46-82.72l-1.46-1.18c-12.69,15.65-23.43,35.61-33.48,58.46C481.33,248.37,488.51,223.42,494,200.81ZM453.6,322.88c3-14,6.27-28.65,9.55-43.41h0l.35-1.56c0-.08,0-.15.05-.22,7.35-26.18,15.72-48.57,24.21-65.47q1.42-2.83,2.85-5.45c-7.08,28-16.61,59.48-28.14,92.88Q458,311,453.6,322.88Zm8.13-45.65q-3.35,11.94-6.39,24.86a142.43,142.43,0,0,0-3.49-38.34c.61-25.26,1.53-52.33,3.33-77.68,2-27.54,5-53,9.72-71.81,2.38-9.42,5.19-17.13,8.49-22.6s7-8.58,11.12-9.12c4.94-.64,8.83.57,11.83,3.39s5.27,7.43,6.67,13.69c2.8,12.52,2.16,31.31-1.47,54.88-2.12,13.71-5.24,29-9.27,45.59-2.06,3.44-4.13,7.21-6.18,11.29a326.78,326.78,0,0,0-17.36,42.94c2.91-13.21,5.73-26.24,8.27-38.66,4-19.77,7.39-38,9.32-53s2.46-26.81.78-33.74l-1.82.44c1.59,6.55,1.11,18.09-.82,33.06s-5.26,33.11-9.3,52.87S466.43,256.16,461.73,277.23ZM458.1,322a587.69,587.69,0,0,0,42.14-62.6c-4.53,2.9-9.11,7.34-13.76,13.19C477.31,284.12,468,301,458.1,322Zm-7.55,2.13q1-5,2-9.84a156,156,0,0,0-.94-42.18c-.17,7.81-.32,15.41-.46,22.69h0C451,305.39,450.79,315.28,450.55,324.14ZM436,296.41c4.52,12.83,9.07,25.75,12.09,36.74-.44-26.36-.92-46.14-10.53-65.18l1.67-.84c6.38,12.64,8.82,25.62,9.86,40.37q.13-6.11.26-12.59v0h0c.19-9.8.39-20.2.65-30.92-.2-.79-.4-1.57-.61-2.34-2.69-9.89-6.48-17.62-10.81-22.57s-9.07-7-13.78-5.87a4.75,4.75,0,0,0-3.47,3.66,22.87,22.87,0,0,0-.3,8.77c.83,7.36,3.61,17.25,7.2,28.23,2.35,7.2,5.05,14.87,7.77,22.57Z"
     id="path21951" />
  <path
     class="cls-3"
     d="M168.63,339.42c15.2-69,66.25-245.69,31.45-259.43C160.31,64.29,152.26,186.21,168.63,339.42Z"
     id="path21953" />
  <path
     class="cls-3"
     d="M168.63,339.42c-19.94-31.88-64.13-97.27-49.84-99.19C145.18,236.69,158.08,275.65,168.63,339.42Z"
     id="path21955" />
  <path
     class="cls-4"
     d="M168.63,340.23c17.54-33.33,67.83-90.69,52-98.83C201.38,231.46,169.21,276.49,168.63,340.23Z"
     id="path21957" />
  <path
     class="cls-5"
     d="M197.87,272.19c-15.79,17.54-21.1,38.67-29.24,67.25"
     id="path21959" />
  <path
     class="cls-4"
     d="M169.57,333.83c-25.84-52.25-58-158.08-36.95-168.63C159.52,151.75,177.07,230.7,169.57,333.83Z"
     id="path21961" />
  <path
     class="cls-5"
     d="M142.76,205.81c15.79,33.87,21.19,80.4,26.45,133"
     id="path21963" />
  <path
     class="cls-4"
     d="M169.08,339.73c-17.55-7.61-57.65-14.06-48-24.56C128.14,307.56,159.14,301.72,169.08,339.73Z"
     id="path21965" />
  <path
     class="cls-5"
     d="M143,318.79c14.12,4.85,18.87,10.69,26.14,18.59"
     id="path21967" />
  <path
     class="cls-5"
     d="M186,125.7c-13.45,24.56-13.32,134.79-17.41,213.15"
     id="path21969" />
  <path
     class="cls-6"
     d="M601.89,404.86H509.17v-1.72h92.72Z"
     id="path21971" />
  <path
     class="cls-7"
     d="M534,302.14c0,4.82-.23,16.54-1.08,18.38l31.35-4.87c-1.13-2.82-3.45-9.52-3.78-11.89a47.21,47.21,0,0,1,1.08-14.05c-10.27-2.16-16.76-2.71-29.73-4.33C533.81,288.35,534,297.82,534,302.14Z"
     id="path21973" />
  <path
     class="cls-8"
     d="M507,234.58,529.2,277l4.27-5.62c-9.73-15.13-23.61-38.6-24.33-39.46s-9.73-3.24-9.73-3.24c0,.54,1.37,4.33,2.17,4.87C503.2,234.58,505.9,234.58,507,234.58Z"
     id="path21975" />
  <path
     class="cls-8"
     d="M576.17,228.63l-13.71,48-5.64-4.25C562,255.2,574,227.1,574.43,226.08s7.72-3.94,7.72-3.94a9.71,9.71,0,0,1-1.12,4.33C579.77,228,577.21,228.33,576.17,228.63Z"
     id="path21977" />
  <path
     class="cls-9"
     d="M565.86,363.76c-7-18.92-13.51-29.73-14.59-29.73-.77,0-6.24,19.72-8.68,28.55-.18.63-.34,1.21-.48,1.72l-10.27.54c-1.08-9.73-1.37-38.4,1.59-44.32,2.4-3.09,6.22-7.36,9.45-11,1.86-2.08,3.52-4,4.61-5.24,0,0-15.14-14.05-15.14-17.3a37.29,37.29,0,0,1,4.33,1.63l12.43,14.05,9.18-9.19,6-1.08L562.33,294c-4.23,3.44-11.6,9.46-11.6,10.32,0,.67,2.81,2.7,6,5a78.06,78.06,0,0,1,8,6.31c2.55,2.55,6.49,6.49,10.81,45.94Zm-25.4-47.57,8.11-10.81a36.33,36.33,0,0,0,5.34,4.53,38.45,38.45,0,0,1,4.39,3.58C551.89,313.09,546.59,314.28,540.46,316.19Z"
     id="path21979" />
  <path
     class="cls-10"
     d="M575.17,397.59c.19-.9-6.25-25.64-9.82-35.22a6.1,6.1,0,0,1,3.91-2.84c2-.51,5.32.6,6.36,1.22.54,3.42,1.21,16.08,1.25,18.78s1.64,16.66,2,18.16a4.2,4.2,0,0,0,1.71,2.38c.52.52,2.17,1.08,1.63,2.16-.33.66-2.21,1.5-2.71,1.63s-4,.27-4.32,0a4.55,4.55,0,0,1-.74-2.87A19.6,19.6,0,0,1,575.17,397.59Z"
     id="path21981" />
  <path
     class="cls-10"
     d="M535.43,397.41c-.17-1.39,5.6-25.85,6.68-33.42-1.08-.54-2.7-2.16-4.87-2.16s-4.88.83-5.4,1.62c-.12,7.33-.71,31.89-.54,33.28.21,1.73-5.83,3.92-5.29,6.62.17.83,6,.48,7.9.29a1.47,1.47,0,0,0,1.52-1.14A16.38,16.38,0,0,0,535.43,397.41Z"
     id="path21983" />
  <path
     class="cls-11"
     d="M560,254.58c1.08,3.78.13,15,.54,16.21,1.62,4.86,10.81,6.48,10.81,14,0,.68.54,9.19-18.38,10.27-12.52.72-23.39-4.53-25.4-14.59-1.09-5.41,4.32-11.09,4.32-14s-2.68-10.43-2.68-14.67,3.57-7.78,5.08-9.31c3.55-3.59,12.58-3.54,15.44-.89C554,245.62,557.54,246.16,560,254.58Z"
     id="path21985" />
  <path
     class="cls-7"
     d="M498.87,141.24h44c3.2-6.64,14.1-18.21,6.77-23.33-3.62-2.53-12.41-1.71-16.35,1.14-3.16,2.27-3.2,7.2-2.82,9.1-1.88-1-4.41-3.43-9-2.84s-8.27,5.69-10.71,8.53a3.3,3.3,0,0,0-3.38-2.27C503.94,131.57,500.75,138,498.87,141.24Z"
     id="path21987" />
  <path
     class="cls-7"
     d="M113.79,149h45.49c5.9.59,16.54-4.12,8.27-12.38-3.27-3.26-5-5.31-10.05-5.31-3.54,0-9.45,2.36-10.63,4.72-2-1-5.21-4.15-10-3.54s-8.07,5.9-10.63,8.85c-.2-.79-1.18-1.77-3.55-1.77C119.11,139.55,115.76,145.64,113.79,149Z"
     id="path21989" />
  <rect
     class="cls-12"
     x="206.22"
     y="79.56"
     width="267.71"
     height="233.36"
     rx="6.55"
     id="rect21991" />
  <path
     class="cls-3"
     d="M452.89,338.18c20.33-16,49.05-23.23,41.27-31.1C487.5,300.33,461.73,312.85,452.89,338.18Z"
     id="path21993" />
  <path
     class="cls-4"
     d="M452.88,338.54c-18.27-15-61.12-31.19-41.75-39.39C430.11,291.12,452.29,309.8,452.88,338.54Z"
     id="path21995" />
  <path
     class="cls-5"
     d="M422.43,307.84c16.45,7.92,22,17.45,30.46,30.35"
     id="path21997" />
  <path
     class="cls-4"
     d="M451.91,335.66c26.94-23.56,60.52-71.27,38.55-76C462.42,253.55,444.12,289.14,451.91,335.66Z"
     id="path21999" />
  <path
     class="cls-5"
     d="M479.88,277.94c-16.47,15.26-22.1,36.24-27.6,60"
     id="path22001" />
  <path
     class="cls-4"
     d="M452.21,338.26c17.91,1.48,55,13.06,50.3,1.2C499.13,330.86,474.34,313.76,452.21,338.26Z"
     id="path22003" />
  <path
     class="cls-5"
     d="M482.22,333.2c-14-2.15-20.15.3-29.26,3.25"
     id="path22005" />
  <path
     d="M264.67,178h-3l-5.33-17.69c-.25-.78-.53-1.77-.85-3a17.11,17.11,0,0,1-.48-2.15,41.71,41.71,0,0,1-1.27,5.22L248.53,178h-3l-7-26.42h3.25l4.18,16.32a61.15,61.15,0,0,1,1.26,6.21,45.55,45.55,0,0,1,1.45-6.47l4.73-16.06h3.25l5,16.21a47.78,47.78,0,0,1,1.46,6.32,54.17,54.17,0,0,1,1.3-6.25l4.16-16.28h3.25Z"
     id="path22007" />
  <path
     d="M283.78,178.4a9.07,9.07,0,0,1-6.93-2.68,10.34,10.34,0,0,1-2.54-7.42,11.51,11.51,0,0,1,2.36-7.61,7.82,7.82,0,0,1,6.33-2.82,7.46,7.46,0,0,1,5.89,2.45,9.37,9.37,0,0,1,2.17,6.46v1.9H277.42a7.86,7.86,0,0,0,1.76,5.29,6.1,6.1,0,0,0,4.71,1.81,16,16,0,0,0,6.32-1.34v2.67a15.75,15.75,0,0,1-3,1A16.7,16.7,0,0,1,283.78,178.4Zm-.81-18a4.87,4.87,0,0,0-3.8,1.56,7.13,7.13,0,0,0-1.68,4.3h10.36a6.64,6.64,0,0,0-1.27-4.35A4.47,4.47,0,0,0,283,160.38Z"
     id="path22009" />
  <path
     d="M299.17,178h-3V149.92h3Z"
     id="path22011" />
  <path
     d="M313.45,178.4a8.47,8.47,0,0,1-6.66-2.65q-2.35-2.64-2.36-7.49t2.39-7.68a8.65,8.65,0,0,1,6.82-2.71,13.84,13.84,0,0,1,2.86.31,10,10,0,0,1,2.24.72l-.92,2.55a15.39,15.39,0,0,0-2.17-.66,10,10,0,0,0-2.08-.26q-6,0-6,7.7a9.18,9.18,0,0,0,1.47,5.6,5.12,5.12,0,0,0,4.36,1.95,13.36,13.36,0,0,0,5.08-1.07v2.66A10.87,10.87,0,0,1,313.45,178.4Z"
     id="path22013" />
  <path
     d="M340.24,168.12c0,3.23-.82,5.75-2.44,7.56a8.6,8.6,0,0,1-6.74,2.72,9,9,0,0,1-4.72-1.25,8.23,8.23,0,0,1-3.18-3.58,12.54,12.54,0,0,1-1.11-5.45c0-3.23.8-5.75,2.42-7.55a8.55,8.55,0,0,1,6.72-2.7,8.35,8.35,0,0,1,6.6,2.77A10.87,10.87,0,0,1,340.24,168.12Zm-15.09,0a9.41,9.41,0,0,0,1.52,5.78,6,6,0,0,0,8.93,0,9.34,9.34,0,0,0,1.53-5.79,9.2,9.2,0,0,0-1.53-5.74,6.12,6.12,0,0,0-9,0A9.31,9.31,0,0,0,325.15,168.12Z"
     id="path22015" />
  <path
     d="M370.73,178V165.15a5.33,5.33,0,0,0-1-3.55,3.93,3.93,0,0,0-3.14-1.18,5.08,5.08,0,0,0-4.14,1.61A7.64,7.64,0,0,0,361.1,167V178h-3V165.15a5.33,5.33,0,0,0-1-3.55,4,4,0,0,0-3.16-1.18,4.9,4.9,0,0,0-4.13,1.69c-.87,1.13-1.31,3-1.31,5.54V178h-3V158.23h2.44l.49,2.71h.15a5.84,5.84,0,0,1,2.39-2.25,7.22,7.22,0,0,1,3.46-.82q4.65,0,6.07,3.36h.14a6.33,6.33,0,0,1,2.57-2.45,7.88,7.88,0,0,1,3.83-.91,6.7,6.7,0,0,1,5,1.73c1.12,1.15,1.67,3,1.67,5.52V178Z"
     id="path22017" />
  <path
     d="M388.28,178.4a9.07,9.07,0,0,1-6.93-2.68c-1.7-1.78-2.54-4.25-2.54-7.42a11.45,11.45,0,0,1,2.36-7.61,7.82,7.82,0,0,1,6.33-2.82,7.48,7.48,0,0,1,5.89,2.45,9.42,9.42,0,0,1,2.17,6.46v1.9H381.92a7.81,7.81,0,0,0,1.76,5.29,6.06,6.06,0,0,0,4.7,1.81,16,16,0,0,0,6.33-1.34v2.67a16,16,0,0,1-3,1A16.84,16.84,0,0,1,388.28,178.4Zm-.82-18a4.87,4.87,0,0,0-3.8,1.56,7.13,7.13,0,0,0-1.67,4.3h10.35a6.64,6.64,0,0,0-1.26-4.35A4.49,4.49,0,0,0,387.46,160.38Z"
     id="path22019" />
  <path
     d="M416.68,175.92a9.49,9.49,0,0,0,1.53-.12,9.6,9.6,0,0,0,1.18-.24v2.29a5.37,5.37,0,0,1-1.44.39,10,10,0,0,1-1.71.16q-5.75,0-5.74-6.06V160.57h-2.84v-1.45l2.84-1.25,1.26-4.22h1.74v4.58h5.74v2.34H413.5v11.65a4,4,0,0,0,.84,2.74A3,3,0,0,0,416.68,175.92Z"
     id="path22021" />
  <path
     d="M440.43,168.12q0,4.84-2.44,7.56a8.58,8.58,0,0,1-6.73,2.72,8.92,8.92,0,0,1-4.72-1.25,8.23,8.23,0,0,1-3.18-3.58,12.39,12.39,0,0,1-1.12-5.45q0-4.85,2.42-7.55a8.57,8.57,0,0,1,6.72-2.7,8.35,8.35,0,0,1,6.6,2.77A10.82,10.82,0,0,1,440.43,168.12Zm-15.08,0a9.35,9.35,0,0,0,1.52,5.78,6,6,0,0,0,8.93,0,9.34,9.34,0,0,0,1.53-5.79,9.2,9.2,0,0,0-1.53-5.74,5.36,5.36,0,0,0-4.51-2,5.3,5.3,0,0,0-4.44,1.93A9.31,9.31,0,0,0,425.35,168.12Z"
     id="path22023" />
  <g
     id="g20331"
     transform="matrix(2.5687658,0,0,2.8605921,-80.499076,-27.312313)">
    <g
       id="g13965"
       transform="matrix(0.47699257,0,0,0.4656053,164.94572,81.517765)">
      <path
         d="M 0,58 V 46.5781 H 0.796875 V 57.25 H 6.24219 V 58 Z"
         fill="#028577"
         id="path13818" />
      <path
         d="M 11.2188,58 V 46.5781 h 0.7968 V 58 Z"
         fill="#028577"
         id="path13820" />
      <path
         d="M 21.2266,58 H 20.4219 V 47.3281 h -3.711 v -0.75 h 8.2266 v 0.75 h -3.7109 z"
         fill="#028577"
         id="path13822" />
      <path
         d="M 35.8828,58 H 29.6406 V 46.5781 h 6.2422 v 0.7344 h -5.4453 v 4.3203 h 5.1406 v 0.7344 h -5.1406 v 4.8984 h 5.4453 z"
         fill="#028577"
         id="path13824" />
      <path
         d="M 43.6719,58 H 41.2891 V 46.5781 h 6.5468 v 1.9844 h -4.164 v 2.9453 h 3.875 v 1.9766 h -3.875 z"
         fill="#028577"
         id="path13826" />
      <path
         d="M 60.0625,58 59.2344,55.2812 H 55.0703 L 54.2422,58 H 51.6328 L 55.6641,46.5312 H 58.625 L 62.6719,58 Z m -1.4063,-4.75 c -0.7656,-2.4635 -1.1979,-3.8568 -1.2968,-4.1797 -0.0938,-0.3229 -0.1615,-0.5781 -0.2032,-0.7656 -0.1718,0.6667 -0.664,2.3151 -1.4765,4.9453 z"
         fill="#028577"
         id="path13828" />
      <path
         d="m 69.5391,51.6484 h 0.7812 c 0.7656,0 1.3307,-0.1276 1.6953,-0.3828 0.3646,-0.2552 0.5469,-0.6562 0.5469,-1.2031 0,-0.5417 -0.1875,-0.9271 -0.5625,-1.1563 -0.3698,-0.2291 -0.9453,-0.3437 -1.7266,-0.3437 h -0.7343 z m 0,1.9688 V 58 H 67.1172 V 46.5781 h 3.3281 c 1.5521,0 2.7005,0.2839 3.4453,0.8516 0.7448,0.5625 1.1172,1.4193 1.1172,2.5703 0,0.6719 -0.1849,1.2708 -0.5547,1.7969 -0.3698,0.5208 -0.8932,0.9297 -1.5703,1.2265 1.7188,2.5677 2.8386,4.2266 3.3594,4.9766 h -2.6875 l -2.7266,-4.3828 z"
         fill="#028577"
         id="path13830" />
      <path
         d="m 85.5156,58 -2.75,-8.9609 h -0.0703 c 0.099,1.8229 0.1485,3.039 0.1485,3.6484 V 58 H 80.6797 V 46.5781 h 3.2969 l 2.7031,8.7344 h 0.0469 l 2.8672,-8.7344 h 3.2968 V 58 h -2.2578 v -5.4062 c 0,-0.2553 0.0026,-0.5495 0.0078,-0.8829 0.0104,-0.3333 0.0469,-1.2187 0.1094,-2.6562 H 90.6797 L 87.7344,58 Z"
         fill="#028577"
         id="path13832" />
    </g>
    <text
       xml:space="preserve"
       style="font-size:15.113px;fill:#458f83;fill-opacity:1;stroke-width:0.399842"
       x="136.3909"
       y="82.223221"
       id="text471"
       transform="scale(0.92120722,1.0855321)"><tspan
         sodipodi:role="line"
         id="tspan469"
         style="fill:#458f83;fill-opacity:1;stroke-width:0.399842"
         x="136.3909"
         y="82.223221">true wellth</tspan></text>
    <text
       xml:space="preserve"
       style="font-size:2.9671px;fill:#458f83;fill-opacity:1;stroke-width:0.0784999"
       x="149.99178"
       y="104.03418"
       id="text471-5"
       transform="scale(0.96026103,1.0413835)"><tspan
         sodipodi:role="line"
         id="tspan469-5"
         style="fill:#458f83;fill-opacity:1;stroke-width:0.0784999"
         x="149.99178"
         y="104.03418">Powered By </tspan></text>
  </g>
</svg>
