<?xml version="1.0" encoding="UTF-8" standalone="no"?>
<svg
   width="349"
   height="234"
   viewBox="0 0 349 234"
   fill="none"
   version="1.1"
   id="svg20092"
   sodipodi:docname="signUp2.svg"
   inkscape:version="1.2.2 (732a01da63, 2022-12-09)"
   xmlns:inkscape="http://www.inkscape.org/namespaces/inkscape"
   xmlns:sodipodi="http://sodipodi.sourceforge.net/DTD/sodipodi-0.dtd"
   xmlns="http://www.w3.org/2000/svg"
   xmlns:svg="http://www.w3.org/2000/svg">
  <defs
     id="defs20096" />
  <sodipodi:namedview
     id="namedview20094"
     pagecolor="#ffffff"
     bordercolor="#000000"
     borderopacity="0.25"
     inkscape:showpageshadow="2"
     inkscape:pageopacity="0.0"
     inkscape:pagecheckerboard="0"
     inkscape:deskcolor="#d1d1d1"
     showgrid="false"
     inkscape:zoom="3.3162393"
     inkscape:cx="174.59536"
     inkscape:cy="117"
     inkscape:window-width="1920"
     inkscape:window-height="974"
     inkscape:window-x="-11"
     inkscape:window-y="-11"
     inkscape:window-maximized="1"
     inkscape:current-layer="svg20092" />
  <path
     fill-rule="evenodd"
     clip-rule="evenodd"
     d="M129.508 11.4462C127.731 12.2821 124.83 13.5324 121.638 14.9077C113.164 18.5586 102.646 23.0905 105.705 23.0905C119.379 23.0904 152.828 11.784 156.857 3.55896C161.042 -4.98325 144.073 3.88961 134.387 8.95396L134.387 8.95407C132.351 10.019 130.636 10.9155 129.508 11.4462ZM324.026 81.5177C324.275 81.9757 324.526 82.4396 324.781 82.9089C339.075 109.261 362.772 152.948 338.174 169.801C305.516 192.175 244.229 196.026 178.666 196.026C140.903 196.374 105.29 194.745 76.7746 192.451C77.1515 191.985 77.4733 191.532 77.7305 191.096C78.2749 190.173 78.578 189.244 78.4105 188.376C78.2372 187.477 77.5899 186.785 76.552 186.288C75.0622 185.576 72.767 185.301 70.2349 185.616C67.6898 185.931 64.852 186.848 62.2619 188.581C61.2862 189.234 60.3486 190.001 59.4766 190.891C61.0548 183.621 62.6432 175.968 63.818 169.068C64.9813 162.236 65.7462 156.103 65.6881 151.793C65.6592 149.65 65.4272 147.89 64.8946 146.714C64.6255 146.119 64.2607 145.632 63.7647 145.338C63.2563 145.037 62.6711 144.975 62.0432 145.125C58.4374 145.986 55.6778 147.911 53.6653 150.796C53.4993 148.918 53.3161 147.064 53.1154 145.243C51.9875 135.008 50.3054 125.765 48.0195 118.992C46.8773 115.607 45.5748 112.81 44.0953 110.81C42.6183 108.815 40.9153 107.55 38.9663 107.379C36.6218 107.173 34.6387 107.76 33.0473 109.083C31.468 110.395 30.3174 112.397 29.5505 114.95C28.6548 117.932 28.2658 121.721 28.3564 126.181C25.0074 117.969 21.6469 110.52 18.3158 103.97C18.0324 103.413 17.7493 102.862 17.4663 102.318C23.1665 92.2738 30.1634 82.2646 38.3102 72.9033C59.6758 46.2838 76.3521 41.1272 102.564 33.022C119.225 27.8702 139.738 21.5272 167.757 7.72429C225.7 -20.8209 299.191 35.6568 323.684 80.8859C323.797 81.0952 323.912 81.3058 324.026 81.5177ZM3.4426 135.182C-3.25032 159.029 -0.460267 178.663 14.2446 183.94C15.1633 184.269 16.3925 184.619 17.9135 184.984C13.5989 181.843 9.89334 178.858 7.41345 176.193C5.89547 174.561 4.79671 173.007 4.3213 171.576C3.83469 170.11 3.99708 168.741 5.03806 167.61C7.38516 165.059 10.9384 164.379 15.0395 165.249C18.7437 166.035 22.9571 168.093 27.3049 171.274C19.4354 159.874 11.255 147.735 3.97925 136.046C3.79982 135.758 3.62093 135.47 3.4426 135.182ZM35.7309 188.103C29.4459 187.223 24.2735 186.352 20.3993 185.54C15.2827 181.903 10.911 178.484 8.14567 175.512C6.65994 173.915 5.67788 172.488 5.27044 171.261C4.87421 170.067 5.02694 169.099 5.77412 168.287C7.79794 166.087 10.9348 165.4 14.832 166.227C18.7318 167.055 23.3161 169.39 28.082 173.116C28.4531 173.406 28.8252 173.704 29.198 174.011C32.7087 179.077 36.1369 183.975 39.3723 188.597C38.7225 188.512 38.0829 188.426 37.4535 188.341C33.6734 184.747 29.594 181.727 24.7468 179.335L24.3042 180.231C28.6141 182.359 32.3051 184.99 35.7309 188.103ZM42.9136 189.051C42.1693 188.958 41.4367 188.865 40.716 188.772C40.5842 188.584 40.4521 188.395 40.3197 188.206L40.318 188.204C37.7587 184.548 35.0784 180.719 32.3316 176.771C35.9261 180.148 39.5239 184.263 42.9136 189.051ZM44.2502 189.216C39.7144 182.676 34.7787 177.327 29.9408 173.327C21.5348 161.195 12.6638 148.106 4.8283 135.518C4.48857 134.972 4.15082 134.427 3.81519 133.884C5.70045 127.453 8.26352 120.734 11.4576 113.92C11.4916 113.982 11.5256 114.045 11.5597 114.108C15.7386 121.817 20.3281 131.559 25.106 142.284C29.8629 152.963 34.8024 164.608 39.7053 176.182C41.2262 180.438 42.8941 184.81 44.7056 189.272C44.5533 189.253 44.4015 189.235 44.2502 189.216ZM48.5974 189.732C47.8674 189.648 47.1467 189.563 46.4354 189.479C44.6547 185.301 42.8566 181.057 41.0522 176.797L41.052 176.797L40.6892 175.941L40.6375 175.818C35.3115 160.907 31.8033 147.435 30.2539 136.5C30.0526 135.08 29.8846 133.703 29.75 132.374C35.9256 148.192 42.0347 166.529 47.8158 186.524C48.0717 187.588 48.3324 188.657 48.5974 189.732ZM50.8196 189.983C50.4831 189.946 50.1485 189.908 49.8157 189.871C49.4738 188.668 49.1308 187.472 48.7865 186.281C43.9269 166.072 40.8069 147.847 42.1382 132.097L41.1416 132.013C40.1107 144.209 41.7227 157.853 44.728 172.688C39.7811 156.652 34.6449 141.902 29.4704 128.942C29.1308 123.32 29.4732 118.684 30.5083 115.238C31.2409 112.799 32.3086 110.997 33.6867 109.852C35.0529 108.716 36.7666 108.19 38.8791 108.375C40.4233 108.51 41.8974 109.521 43.2913 111.405C44.6828 113.285 45.9452 115.972 47.0719 119.311C49.3241 125.984 50.9965 135.145 52.1213 145.353C52.3682 147.593 52.5886 149.883 52.7829 152.206C50.8882 155.585 49.8279 160.012 49.4315 165.351C48.93 172.107 49.4878 180.389 50.8196 189.983ZM53.7183 190.301C53.088 190.233 52.4637 190.165 51.8453 190.097C50.4945 180.441 49.9295 172.151 50.4288 165.426C50.7643 160.907 51.5783 157.126 52.9366 154.121C53.8581 166.102 54.0993 178.852 53.7183 190.301ZM58.4737 190.796C57.1994 190.668 55.9464 190.538 54.7154 190.407C55.1184 178.385 54.837 164.935 53.8052 152.433L53.8362 152.38L53.8769 152.312C55.7972 149.089 58.5391 146.99 62.2757 146.098C62.697 145.997 63.0078 146.051 63.255 146.198C63.5146 146.352 63.765 146.643 63.9836 147.126C64.4264 148.104 64.6595 149.689 64.6881 151.807C64.7449 156.019 63.9944 162.073 62.8321 168.9C61.6532 175.824 60.058 183.503 58.4737 190.796ZM75.5499 192.351C70.3746 191.928 65.4389 191.484 60.773 191.026C61.428 190.419 62.1141 189.883 62.8182 189.412C65.2655 187.775 67.9517 186.907 70.3583 186.608C72.7781 186.308 74.8624 186.589 76.1207 187.19C76.9808 187.602 77.3349 188.079 77.4286 188.565C77.5281 189.081 77.364 189.749 76.869 190.588C76.5442 191.139 76.0978 191.729 75.5499 192.351ZM11.9867 112.802C12.137 113.076 12.2877 113.353 12.4389 113.632C16.6365 121.375 21.2385 131.145 26.0196 141.878C29.2012 149.02 32.464 156.593 35.7416 164.285C32.5782 154.015 30.3998 144.658 29.2637 136.64C28.8899 134.002 28.6282 131.505 28.4819 129.164C24.7949 119.939 21.0906 111.632 17.4244 104.423C17.2427 104.066 17.0611 103.711 16.8797 103.359C15.119 106.512 13.4864 109.666 11.9867 112.802Z"
     fill="#E6F5EB"
     id="path20032" />
  <path
     opacity="0.6"
     fill-rule="evenodd"
     clip-rule="evenodd"
     d="M268.461 45.0572C266.431 43.1533 263.813 42.368 260.629 42.7832C257.732 43.161 255.319 45.3071 253.299 48.6581C251.274 52.0171 249.588 56.6764 248.174 62.2725C245.344 73.4699 243.57 88.5469 242.413 104.802C241.427 118.658 240.888 133.402 240.526 147.361C238.957 142.278 236.863 138.19 234.444 135.429C231.746 132.348 228.579 130.86 225.282 131.635C223.819 131.979 222.921 133.025 222.47 134.508C222.028 135.963 221.998 137.878 222.251 140.104C222.758 144.565 224.427 150.486 226.544 156.962C227.952 161.269 229.558 165.824 231.165 170.38C234.313 179.306 237.462 188.234 239.121 195.304L238.649 196.159L239.666 195.992C239.699 195.986 239.732 195.981 239.765 195.976C239.784 195.972 239.803 195.969 239.822 195.966L240.245 195.971L240.263 195.899C242.857 195.52 246.085 195.334 249.475 195.177C250.101 195.148 250.733 195.12 251.367 195.092L251.4 195.09L251.409 195.09L251.418 195.089L251.419 195.089C254.455 194.955 257.537 194.819 260.306 194.564C263.651 194.255 266.622 193.769 268.523 192.859C269.476 192.403 270.236 191.806 270.595 190.998C270.966 190.165 270.861 189.227 270.335 188.217C269.58 186.768 267.947 185.218 265.792 184.022C263.627 182.82 260.891 181.95 257.882 181.902C256.761 181.884 255.607 181.98 254.435 182.213C259.799 177.081 265.389 171.637 270.229 166.581C275.02 161.576 279.102 156.924 281.507 153.314C282.703 151.518 283.521 149.927 283.774 148.652C283.902 148.009 283.896 147.399 283.678 146.873C283.454 146.331 283.029 145.937 282.445 145.697C279.156 144.344 275.921 144.351 272.726 145.573C273.662 143.923 274.572 142.282 275.45 140.659C280.393 131.513 284.341 122.875 286.414 115.941C287.45 112.477 288.027 109.41 288.013 106.905C287.999 104.408 287.397 102.379 285.971 101.112C284.258 99.59 282.37 98.9329 280.366 99.1187C278.382 99.3028 276.345 100.308 274.298 101.986C271.928 103.929 269.494 106.816 267.051 110.522C269.105 101.819 270.719 93.7401 271.848 86.4185C273.996 72.4918 274.4 61.2504 272.705 53.6685C271.857 49.8763 270.472 46.942 268.461 45.0572ZM252.956 183.626C254.645 183.089 256.299 182.877 257.866 182.902C260.693 182.947 263.27 183.766 265.307 184.897C267.355 186.033 268.812 187.46 269.448 188.679C269.882 189.512 269.891 190.121 269.682 190.591C269.462 191.085 268.95 191.546 268.092 191.957C266.371 192.78 263.566 193.259 260.214 193.568C257.471 193.821 254.418 193.956 251.383 194.09C250.73 194.119 250.077 194.148 249.429 194.178C246.515 194.313 243.68 194.47 241.253 194.76C242.194 193.856 243.191 192.905 244.232 191.914C245.281 191.277 246.333 190.696 247.467 190.182C250.007 189.029 252.968 188.202 257.203 187.845L257.119 186.849C252.785 187.214 249.711 188.065 247.053 189.271L246.978 189.306L247.67 188.65L247.67 188.649L247.67 188.649L247.671 188.648L247.672 188.647L247.673 188.646L247.683 188.637L247.69 188.631C249.383 187.024 251.151 185.347 252.956 183.626ZM250.387 184.691C247.717 186.068 245.022 188.337 242.494 191.823C242.87 191.581 243.244 191.346 243.62 191.116C244.704 190.085 245.835 189.012 247.001 187.905L247.003 187.903L247.015 187.892C248.112 186.852 249.239 185.782 250.387 184.691ZM243.09 189.436C246.09 185.876 249.296 183.787 252.431 182.744C258.18 177.259 264.28 171.35 269.507 165.889C274.293 160.889 278.322 156.291 280.675 152.759C281.857 150.984 282.58 149.53 282.793 148.457C282.899 147.926 282.87 147.535 282.754 147.255C282.645 146.992 282.438 146.775 282.064 146.621C278.663 145.223 275.348 145.389 272.025 146.96C271.983 146.98 271.942 147 271.9 147.02C263.232 162.098 252.443 177.85 243.174 189.254L243.09 189.436ZM266.324 113.551C269.259 108.684 272.165 105.028 274.932 102.759C276.891 101.154 278.744 100.274 280.459 100.114C282.154 99.9571 283.775 100.499 285.307 101.86C286.425 102.853 287 104.538 287.013 106.91C287.026 109.275 286.479 112.234 285.456 115.655C283.411 122.492 279.501 131.062 274.57 140.183C273.487 142.187 272.355 144.216 271.184 146.258C267.786 147.977 264.444 151.045 261.1 155.248C255.823 161.883 250.477 171.435 244.867 183.244C246.196 179.543 247.488 175.877 248.74 172.249C256.454 152.679 264.393 135.752 274.389 123.437L273.613 122.807C265.946 132.253 259.489 144.368 253.439 158.249C258.655 142.237 263.005 127.174 266.324 113.551ZM242.329 186.242C244.139 177.784 246.12 168.893 248.115 159.941L248.115 159.941L248.319 159.022C248.329 158.978 248.339 158.933 248.349 158.889C252.687 143.449 257.621 130.246 262.636 120.274C263.262 119.03 263.888 117.838 264.514 116.699C260.325 133.343 254.661 152.027 247.806 171.891C245.973 176.54 244.156 181.332 242.329 186.242ZM247.379 158.645C246.015 163.5 244.711 168.573 243.482 173.834C243.84 165.11 243.039 157.224 241.443 150.689C241.804 135.788 242.347 119.825 243.411 104.873C244.567 88.6309 246.336 73.626 249.143 62.5173C250.548 56.9603 252.205 52.4104 254.156 49.1742C256.111 45.9299 258.306 44.0946 260.758 43.7748C263.686 43.393 265.993 44.1136 267.777 45.7867C269.582 47.4788 270.903 50.1924 271.729 53.8868C273.381 61.2784 273.004 72.3658 270.86 86.2663C269.611 94.3595 267.767 103.387 265.389 113.166C264.17 115.195 262.953 117.419 261.743 119.825C258.112 127.043 254.53 135.93 251.186 146.112C252.98 137.978 254.719 129.951 256.281 122.316C258.666 110.66 260.642 99.9064 261.781 91.0678C262.916 82.256 263.231 75.2667 262.242 71.1866L261.27 71.4223C262.209 75.2983 261.926 82.1117 260.789 90.9402C259.655 99.7419 257.685 110.467 255.301 122.116C252.928 133.715 250.147 146.22 247.379 158.645ZM244.936 185.44C253.255 174.817 262.497 161.194 270.199 147.964C267.455 149.68 264.692 152.338 261.883 155.871C256.413 162.748 250.84 172.841 244.936 185.44ZM240.663 186.914C241.091 184.75 241.533 182.61 241.987 180.498C242.991 171.045 242.634 162.374 241.341 155.074C241.233 159.876 241.142 164.542 241.055 168.999L241.055 169C240.927 175.487 240.809 181.533 240.663 186.914ZM232.079 169.963C234.802 177.686 237.544 185.46 239.32 192.023C239.061 176.277 238.821 164.487 233.093 153.151L233.986 152.7C237.921 160.487 239.312 168.486 239.88 177.675C239.938 174.921 239.994 172.052 240.052 169.089L240.052 169.08L240.053 169.067L240.053 169.057L240.053 169.045L240.053 169.036L240.053 169.036L240.053 169.033C240.167 163.256 240.287 157.124 240.44 150.799C240.324 150.33 240.204 149.868 240.08 149.413C238.491 143.581 236.253 139.011 233.692 136.088C231.133 133.167 228.317 131.949 225.511 132.609C224.478 132.852 223.802 133.566 223.427 134.798C223.044 136.058 222.997 137.812 223.245 139.991C223.739 144.341 225.377 150.176 227.494 156.651C228.883 160.901 230.478 165.423 232.079 169.963L232.079 169.963Z"
     fill="white"
     id="path20034" />
  <path
     d="M74.4207 195.307C83.39 154.615 113.505 50.4236 92.9714 42.3226C69.5105 33.0669 64.7616 104.958 74.4207 195.307Z"
     fill="#DCF2E2"
     id="path20036" />
  <path
     d="M74.4207 195.307C62.6613 176.506 36.5895 137.947 45.0221 136.815C60.5861 134.726 68.1951 157.705 74.4207 195.307Z"
     fill="#DCF2E2"
     id="path20038" />
  <path
     d="M74.4211 195.785C84.7704 176.129 114.438 142.304 105.124 137.507C93.7396 131.645 74.7662 158.197 74.4211 195.785Z"
     fill="#D2EAD7"
     id="path20040" />
  <path
     d="M91.6693 155.662C82.3551 166.007 79.2215 178.468 74.4207 195.319"
     stroke="white"
     id="path20042" />
  <path
     d="M74.9738 192.009C59.735 161.196 40.7425 98.7888 53.1805 92.5723C69.0495 84.6409 79.3984 131.195 74.9738 192.009Z"
     fill="#D2EAD7"
     id="path20044" />
  <path
     d="M59.1617 116.519C68.4759 136.49 71.6607 163.926 74.7654 194.962"
     stroke="white"
     id="path20046" />
  <path
     d="M74.6856 195.488C64.3365 191.005 40.6798 187.197 46.3979 181.004C50.5376 176.521 68.8211 173.073 74.6856 195.488Z"
     fill="#D2EAD7"
     id="path20048" />
  <path
     d="M59.328 183.142C67.6535 186.001 70.4545 189.445 74.7457 194.102"
     stroke="white"
     id="path20050" />
  <path
     d="M84.689 69.2756C76.7547 83.759 76.8355 148.765 74.4207 194.974"
     stroke="white"
     id="path20052" />
  <path
     fill-rule="evenodd"
     clip-rule="evenodd"
     d="M320.223 233.898H265.525V232.885H320.223V233.898Z"
     fill="#2C2727"
     id="path20054" />
  <path
     d="M282.842 173.322C282.842 176.167 282.704 183.078 282.204 184.159L300.698 181.291C300.032 179.627 298.666 175.676 298.466 174.278C298.216 172.532 298.466 168.541 299.104 165.991C293.045 164.716 289.219 164.398 281.567 163.442C282.732 165.188 282.842 170.772 282.842 173.322Z"
     fill="white"
     id="path20056" />
  <path
     d="M266.902 133.481L280.01 158.471L282.526 155.154C276.787 146.23 268.6 132.393 268.178 131.887C267.756 131.381 262.438 129.975 262.438 129.975C262.438 130.293 263.244 132.53 263.714 132.843C264.67 133.481 266.265 133.481 266.902 133.481Z"
     fill="#FED450"
     id="path20058" />
  <path
     d="M307.716 129.974L299.63 158.301L296.302 155.798C299.382 145.645 306.423 129.074 306.691 128.471C306.958 127.869 311.246 126.15 311.246 126.15C311.333 126.456 310.952 128.27 310.585 128.699C309.84 129.574 308.329 129.8 307.716 129.974Z"
     fill="#FED450"
     id="path20060" />
  <path
     fill-rule="evenodd"
     clip-rule="evenodd"
     d="M301.637 209.658C297.492 198.502 293.666 192.128 293.028 192.128C292.575 192.128 289.35 203.759 287.906 208.963C287.803 209.336 287.709 209.676 287.625 209.977L281.567 210.295C280.929 204.558 280.759 187.653 282.506 184.159C283.922 182.34 286.174 179.818 288.077 177.687C289.175 176.457 290.157 175.358 290.796 174.597C290.796 174.597 281.868 166.31 281.868 164.398C282.187 164.398 284.419 165.354 284.419 165.354L291.753 173.641L297.173 168.223L300.681 167.585C300.389 167.826 300 168.143 299.551 168.509C297.059 170.542 292.709 174.09 292.709 174.597C292.709 174.989 294.368 176.192 296.271 177.571C298 178.823 299.93 180.222 300.999 181.291C302.5 182.791 304.826 185.115 307.376 208.383L301.637 209.658ZM286.651 181.609L291.434 175.235C292.402 176.29 293.508 177.106 294.589 177.904C295.5 178.577 296.394 179.236 297.173 180.016C293.397 179.78 290.27 180.479 286.651 181.609Z"
     fill="#84BFB6"
     id="path20062" />
  <path
     d="M307.127 229.612C307.237 229.079 303.44 214.487 301.336 208.838C301.596 208.245 302.475 207.474 303.643 207.168C304.812 206.862 306.778 207.518 307.394 207.882C307.714 209.9 308.108 217.368 308.132 218.961C308.156 220.555 309.095 228.781 309.327 229.666C309.559 230.551 310.021 230.755 310.34 231.073C310.643 231.377 311.615 231.711 311.296 232.348C311.104 232.732 309.994 233.228 309.702 233.304C309.41 233.381 307.313 233.467 307.151 233.305C306.832 232.986 306.714 232.244 306.714 231.611C306.714 231.001 306.989 230.278 307.127 229.612Z"
     fill="#4D4D4D"
     id="path20064" />
  <path
     d="M283.685 229.501C283.585 228.684 286.987 214.257 287.625 209.795C286.987 209.476 286.031 208.52 284.755 208.52C283.507 208.52 281.876 209.012 281.567 209.476C281.498 213.799 281.148 228.283 281.248 229.1C281.373 230.122 277.809 231.413 278.128 233.007C278.226 233.496 281.685 233.29 282.789 233.176C283.235 233.129 283.463 233.063 283.685 232.507C283.868 232.051 283.81 230.522 283.685 229.501Z"
     fill="#4D4D4D"
     id="path20066" />
  <path
     d="M298.147 145.273C298.785 147.505 298.229 154.125 298.466 154.835C299.423 157.704 304.843 158.66 304.843 163.123C304.843 163.523 305.162 168.541 294.002 169.178C286.618 169.6 280.202 166.503 279.016 160.573C278.378 157.385 281.567 154.032 281.567 152.286C281.567 150.539 279.986 146.14 279.986 143.636C279.986 141.133 282.09 139.049 282.981 138.147C285.074 136.03 290.407 136.062 292.089 137.624C294.64 139.992 296.729 140.311 298.147 145.273Z"
     fill="#282B36"
     id="path20068" />
  <path
     d="M269.234 78.4403H295.18C297.065 74.5254 303.496 67.7024 299.172 64.6823C297.036 63.1905 291.854 63.6756 289.525 65.3534C287.663 66.6957 287.64 69.6039 287.862 70.7224C286.753 70.1631 285.262 68.7013 282.54 69.0446C279.879 69.3802 277.661 72.4002 276.22 74.078C276.109 73.6306 275.554 72.7358 274.224 72.7358C272.228 72.7358 270.343 76.5388 269.234 78.4403Z"
     fill="white"
     id="path20070" />
  <path
     d="M42.0725 83.0076H68.9036C72.3881 83.3555 78.6603 80.5728 73.782 75.7031C71.8575 73.782 70.8558 72.5725 67.8582 72.5725C65.7675 72.5725 62.2829 73.9639 61.586 75.3552C60.4245 74.7755 58.5135 72.9124 55.6623 73.2682C52.8746 73.6161 50.9001 76.7466 49.3901 78.4858C49.2739 78.022 48.6932 77.4423 47.2993 77.4423C45.2086 77.4423 43.234 81.0366 42.0725 83.0076Z"
     fill="white"
     id="path20072" />
  <rect
     x="94.9399"
     y="45.5"
     width="159"
     height="129"
     rx="3.5"
     fill="#FFFBFB"
     stroke="#83CF9E"
     id="rect20074" />
  <path
     d="M242.11 194.573C254.103 185.139 271.049 180.88 266.46 176.235C262.526 172.254 247.328 179.639 242.11 194.573Z"
     fill="#DCF2E2"
     id="path20076" />
  <path
     d="M242.107 194.789C231.325 185.919 206.048 176.392 217.478 171.558C228.674 166.824 241.756 177.838 242.107 194.789Z"
     fill="#D2EAD7"
     id="path20078" />
  <path
     d="M224.141 176.685C233.847 181.355 237.11 186.976 242.11 194.578"
     stroke="white"
     id="path20080" />
  <path
     d="M241.534 193.087C257.425 179.199 277.236 151.065 264.273 148.255C247.734 144.669 236.936 165.658 241.534 193.087Z"
     fill="#D2EAD7"
     id="path20082" />
  <path
     d="M258.032 159.05C248.319 168.052 244.993 180.423 241.75 194.417"
     stroke="white"
     id="path20084" />
  <path
     d="M241.708 194.623C252.275 195.494 274.138 202.326 271.383 195.327C269.39 190.259 254.766 180.173 241.708 194.623Z"
     fill="#D2EAD7"
     id="path20086" />
  <path
     d="M259.415 191.636C251.18 190.373 247.527 191.814 242.15 193.557"
     stroke="white"
     id="path20088" />
  <g
     id="g20331"
     transform="matrix(1.3697372,0,0,1.5436718,-55.356044,-14.610194)">
    <g
       id="g13965"
       transform="matrix(0.47699257,0,0,0.4656053,164.94572,81.517765)">
      <path
         d="M 0,58 V 46.5781 H 0.796875 V 57.25 H 6.24219 V 58 Z"
         fill="#028577"
         id="path13818" />
      <path
         d="M 11.2188,58 V 46.5781 h 0.7968 V 58 Z"
         fill="#028577"
         id="path13820" />
      <path
         d="M 21.2266,58 H 20.4219 V 47.3281 h -3.711 v -0.75 h 8.2266 v 0.75 h -3.7109 z"
         fill="#028577"
         id="path13822" />
      <path
         d="M 35.8828,58 H 29.6406 V 46.5781 h 6.2422 v 0.7344 h -5.4453 v 4.3203 h 5.1406 v 0.7344 h -5.1406 v 4.8984 h 5.4453 z"
         fill="#028577"
         id="path13824" />
      <path
         d="M 43.6719,58 H 41.2891 V 46.5781 h 6.5468 v 1.9844 h -4.164 v 2.9453 h 3.875 v 1.9766 h -3.875 z"
         fill="#028577"
         id="path13826" />
      <path
         d="M 60.0625,58 59.2344,55.2812 H 55.0703 L 54.2422,58 H 51.6328 L 55.6641,46.5312 H 58.625 L 62.6719,58 Z m -1.4063,-4.75 c -0.7656,-2.4635 -1.1979,-3.8568 -1.2968,-4.1797 -0.0938,-0.3229 -0.1615,-0.5781 -0.2032,-0.7656 -0.1718,0.6667 -0.664,2.3151 -1.4765,4.9453 z"
         fill="#028577"
         id="path13828" />
      <path
         d="m 69.5391,51.6484 h 0.7812 c 0.7656,0 1.3307,-0.1276 1.6953,-0.3828 0.3646,-0.2552 0.5469,-0.6562 0.5469,-1.2031 0,-0.5417 -0.1875,-0.9271 -0.5625,-1.1563 -0.3698,-0.2291 -0.9453,-0.3437 -1.7266,-0.3437 h -0.7343 z m 0,1.9688 V 58 H 67.1172 V 46.5781 h 3.3281 c 1.5521,0 2.7005,0.2839 3.4453,0.8516 0.7448,0.5625 1.1172,1.4193 1.1172,2.5703 0,0.6719 -0.1849,1.2708 -0.5547,1.7969 -0.3698,0.5208 -0.8932,0.9297 -1.5703,1.2265 1.7188,2.5677 2.8386,4.2266 3.3594,4.9766 h -2.6875 l -2.7266,-4.3828 z"
         fill="#028577"
         id="path13830" />
      <path
         d="m 85.5156,58 -2.75,-8.9609 h -0.0703 c 0.099,1.8229 0.1485,3.039 0.1485,3.6484 V 58 H 80.6797 V 46.5781 h 3.2969 l 2.7031,8.7344 h 0.0469 l 2.8672,-8.7344 h 3.2968 V 58 h -2.2578 v -5.4062 c 0,-0.2553 0.0026,-0.5495 0.0078,-0.8829 0.0104,-0.3333 0.0469,-1.2187 0.1094,-2.6562 H 90.6797 L 87.7344,58 Z"
         fill="#028577"
         id="path13832" />
    </g>
    <text
       xml:space="preserve"
       style="font-size:15.113px;fill:#458f83;fill-opacity:1;stroke-width:0.399842"
       x="136.3909"
       y="82.223221"
       id="text471"
       transform="scale(0.92120722,1.0855321)"><tspan
         sodipodi:role="line"
         id="tspan469"
         style="fill:#458f83;fill-opacity:1;stroke-width:0.399842"
         x="136.3909"
         y="82.223221">true wellth</tspan></text>
    <text
       xml:space="preserve"
       style="font-size:2.9671px;fill:#458f83;fill-opacity:1;stroke-width:0.0784999"
       x="149.99178"
       y="104.03418"
       id="text471-5"
       transform="scale(0.96026103,1.0413835)"><tspan
         sodipodi:role="line"
         id="tspan469-5"
         style="fill:#458f83;fill-opacity:1;stroke-width:0.0784999"
         x="149.99178"
         y="104.03418">Powered By </tspan></text>
  </g>
  <text
     xml:space="preserve"
     style="white-space:pre;inline-size:80.776;fill:#ffffff;stroke-width:0.31748"
     x="117.30155"
     y="73.878868"
     id="text20335"
     transform="matrix(1.1582058,0,0,1.2918559,-11.707379,-2.9191172)"><tspan
       x="117.30155"
       y="73.878868"
       id="tspan20852"><tspan
         style="fill:#426530"
         id="tspan20850">Welcome To</tspan></tspan></text>
</svg>
