<?xml version="1.0" encoding="UTF-8" standalone="no"?>
<svg
   width="86"
   height="12"
   viewBox="0 0 86 12"
   fill="none"
   version="1.1"
   id="svg23775"
   sodipodi:docname="smaller_logo.svg"
   inkscape:version="1.2.2 (732a01da63, 2022-12-09)"
   xmlns:inkscape="http://www.inkscape.org/namespaces/inkscape"
   xmlns:sodipodi="http://sodipodi.sourceforge.net/DTD/sodipodi-0.dtd"
   xmlns="http://www.w3.org/2000/svg"
   xmlns:svg="http://www.w3.org/2000/svg">
  <defs
     id="defs23779" />
  <sodipodi:namedview
     id="namedview23777"
     pagecolor="#ffffff"
     bordercolor="#000000"
     borderopacity="0.25"
     inkscape:showpageshadow="2"
     inkscape:pageopacity="0.0"
     inkscape:pagecheckerboard="0"
     inkscape:deskcolor="#d1d1d1"
     showgrid="false"
     inkscape:zoom="17.546512"
     inkscape:cx="43.028496"
     inkscape:cy="5.9840954"
     inkscape:window-width="1920"
     inkscape:window-height="974"
     inkscape:window-x="-11"
     inkscape:window-y="-11"
     inkscape:window-maximized="1"
     inkscape:current-layer="svg23775" />
  <path
     d="M 26.853825,11.71204 V 8.4405366 h 0.248647 v 3.0566864 h 1.699091 v 0.214817 z"
     fill="#028577"
     id="path132"
     style="stroke-width:0.298952" />
  <path
     d="M 30.042377,11.71204 V 8.4405366 h 0.248624 V 11.71204 Z"
     fill="#028577"
     id="path134"
     style="stroke-width:0.298952" />
  <path
     d="M 32.853064,11.71204 H 32.601975 V 8.6553536 h -1.157936 v -0.214817 h 2.56693 v 0.214817 h -1.157905 z"
     fill="#028577"
     id="path136"
     style="stroke-width:0.298952" />
  <path
     d="M 37.114181,11.71204 H 35.16644 V 8.4405366 h 1.947741 v 0.210342 h -1.699086 v 1.237437 h 1.604011 v 0.2103434 h -1.604011 v 1.403032 h 1.699086 z"
     fill="#028577"
     id="path138"
     style="stroke-width:0.298952" />
  <path
     d="m 39.232571,11.71204 h -0.7435 V 8.4405366 h 2.042785 v 0.568371 h -1.299285 v 0.843605 h 1.209109 v 0.5661324 h -1.209109 z"
     fill="#028577"
     id="path140"
     style="stroke-width:0.298952" />
  <path
     d="M 44.03487,11.71204 43.77648,10.933313 H 42.477164 L 42.218773,11.71204 H 41.404567 L 42.662446,8.4271106 H 43.58633 L 44.849076,11.71204 Z M 43.596065,10.351516 C 43.357176,9.6459006 43.222287,9.2468476 43.191427,9.1543556 c -0.02927,-0.09249 -0.05039,-0.165587 -0.0634,-0.219291 -0.05361,0.190947 -0.207187,0.663098 -0.46071,1.4164514 z"
     fill="#028577"
     id="path142"
     style="stroke-width:0.298952" />
  <path
     d="m 46.679807,9.8927916 h 0.243756 c 0.238889,0 0.415216,-0.03655 0.528982,-0.109645 0.113765,-0.0731 0.170648,-0.187968 0.170648,-0.344604 0,-0.155147 -0.05851,-0.265538 -0.175516,-0.331177 -0.115388,-0.06564 -0.29496,-0.09846 -0.538748,-0.09846 h -0.229122 z m 0,0.5638964 V 11.71204 H 45.924106 V 8.4405366 h 1.038461 c 0.484299,0 0.842632,0.0813 1.07503,0.243907 0.232399,0.161114 0.348598,0.406513 0.348598,0.736197 0,0.192439 -0.05769,0.363995 -0.173082,0.514665 -0.115388,0.1491814 -0.278703,0.2662854 -0.489978,0.3513184 0.536314,0.735451 0.885723,1.210599 1.048227,1.425416 h -0.838575 l -0.850776,-1.255352 z"
     fill="#028577"
     id="path144"
     style="stroke-width:0.298952" />
  <path
     d="M 51.352895,11.71204 50.494818,9.1454056 h -0.02193 c 0.03089,0.522126 0.04634,0.8704594 0.04634,1.0449974 v 1.521637 h -0.67526 V 8.4405366 h 1.028725 l 0.843443,2.5017274 h 0.01463 l 0.894647,-2.5017274 h 1.028694 V 11.71204 H 52.94961 v -1.548489 c 0,-0.0731 8.12e-4,-0.157384 0.0024,-0.2528574 0.0032,-0.09548 0.01463,-0.349078 0.03414,-0.760812 H 52.96421 L 52.045194,11.71204 Z"
     fill="#028577"
     id="path146"
     style="stroke-width:0.298952" />
  <text
     xml:space="preserve"
     style="font-size:9.33509px;fill:#458f83;fill-opacity:1;stroke-width:0.246976"
     x="15.473742"
     y="7.2391868"
     id="text471"
     transform="scale(1.0319044,0.96908201)"><tspan
       sodipodi:role="line"
       id="tspan469"
       style="fill:#458f83;fill-opacity:1;stroke-width:0.246976"
       x="15.473742"
       y="7.2391868">true wellth</tspan></text>
</svg>
